
<svg xmlns="http://www.w3.org/2000/svg" version="1.1" xmlns:xlink="http://www.w3.org/1999/xlink" preserveAspectRatio="none" x="0px" y="0px" width="120px" height="120px" viewBox="0 0 120 120">
<defs>
<linearGradient id="Gradient_1" gradientUnits="userSpaceOnUse" x1="14.4" y1="47.25" x2="14.4" y2="73.65" spreadMethod="pad">
<stop  offset="0%" stop-color="#FFE856"/>

<stop  offset="100%" stop-color="#FFFEC2"/>
</linearGradient>

<linearGradient id="Gradient_2" gradientUnits="userSpaceOnUse" x1="60.5" y1="24.5625" x2="60.5" y2="97.1375" spreadMethod="pad">
<stop  offset="0%" stop-color="#FFD212"/>

<stop  offset="100%" stop-color="#FFF886"/>
</linearGradient>

<linearGradient id="Gradient_3" gradientUnits="userSpaceOnUse" x1="106.65" y1="47.25" x2="106.65" y2="73.65" spreadMethod="pad">
<stop  offset="0%" stop-color="#FFE856"/>

<stop  offset="100%" stop-color="#FFFEC2"/>
</linearGradient>

<g id="Layer0_0_FILL">
<path fill="url(#Gradient_1)" stroke="none" d="
M 18 48.75
Q 16.5 47.25 14.4 47.25 12.4 47.25 10.9 48.75 9.4 50.2 9.4 52.25
L 9.4 68.6
Q 9.4 70.65 10.9 72.15 12.4 73.65 14.4 73.65 16.5 73.65 18 72.15 19.4 70.7 19.4 68.6
L 19.4 52.25
Q 19.4 50.15 18 48.75 Z"/>

<path fill="url(#Gradient_2)" stroke="none" d="
M 86.25 86.55
Q 96.8 76 96.8 60.85 96.8 45.85 86.25 35.2 75.55 24.55 60.5 24.55 45.6 24.55 34.85 35.2 24.25 45.9 24.25 60.85 24.25 75.95 34.85 86.55 45.45 97.15 60.5 97.15 75.65 97.15 86.25 86.55
M 41.95 42.3
Q 49.55 34.55 60.5 34.55 71.5 34.55 79.15 42.3 86.8 49.9 86.8 60.85 86.8 71.85 79.15 79.5 71.5 87.15 60.5 87.15 49.55 87.15 41.95 79.5 34.25 71.9 34.25 60.85 34.25 49.85 41.95 42.3 Z"/>

<path fill="#FFE856" stroke="none" d="
M 52.25 61.6
Q 52.25 59.55 50.75 58.05 49.25 56.6 47.25 56.6 45.25 56.6 43.7 58.05 42.25 59.5 42.25 61.6 42.25 63.7 43.7 65.1 45.2 66.6 47.25 66.6 49.25 66.6 50.75 65.1 52.25 63.7 52.25 61.6
M 73.8 56.55
Q 71.8 56.55 70.3 58.05 68.8 59.55 68.8 61.55 68.8 63.7 70.3 65.05 71.8 66.55 73.8 66.55 75.9 66.55 77.3 65.05 78.8 63.7 78.8 61.55 78.8 59.55 77.3 58.05 75.9 56.55 73.8 56.55 Z"/>

<path fill="url(#Gradient_3)" stroke="none" d="
M 106 47.3
Q 104.35 47.5 103.15 48.75 101.65 50.2 101.65 52.25
L 101.65 68.6
Q 101.65 70.65 103.15 72.15 104.35 73.4 106 73.6 106.3 73.65 106.65 73.65 108.65 73.65 110.15 72.15 111.65 70.65 111.65 68.6
L 111.65 52.25
Q 111.65 50.2 110.15 48.75 108.65 47.25 106.65 47.25 106.3 47.25 106 47.3 Z"/>
</g>
</defs>

<g transform="matrix( 1, 0, 0, 1, 0,0) ">
<use xlink:href="#Layer0_0_FILL"/>
</g>
</svg>
